<svg xmlns="http://www.w3.org/2000/svg" width="400" height="400" viewBox="0 0 400 400"><defs><style>.a{fill:#1a1f29;}.b{fill:#02ff5b;}</style></defs><path class="a" d="M166.5334,302.3513H117.3217l12.8317-66.4852c-1.8712-.2086-3.9973.5983-6.6938,2.3238-12.8527,8.2245-25.8873,16.1648-38.8731,24.1817L69.2046,342.07h96.4919c.2166-12.7045.5172-26.8327.8838-38.628l0-.0092C166.58,303.0724,166.55,302.7118,166.5334,302.3513Z"/><path class="a" d="M380,121.09c0-28.5181-11.7447-53.2838-33.071-69.7332l-.3137-.2385c-19.6049-14.705-45.0062-21.8533-77.6538-21.8533H129.5763l-8.94,46.3184c9.46,15.494,19.1067,30.8765,28.6187,46.34a10.6953,10.6953,0,0,0,2.3766,2.6555l10.73-55.5956h106.6c23.6779,0,41.2532,4.5262,53.7248,13.8363l.0784.06C337.24,94.102,340.2815,109.8465,340.2815,121.09c0,12.3007-4.1978,22.8221-12.4768,31.2717L304.9394,175.7l18.4894,26.937a44.245,44.245,0,0,1,7.6019,25.5485c0,24.7217-11.619,47.0732-31.0845,59.81l-.0685.0442c-15.7473,10.0312-32.128,14.3118-54.7535,14.3118H193.6221c-.3251,9.9194-.76,19.43-1.2843,24.757a.38.38,0,0,0-.01.102c-.5916,5.0387-8.17,5.0693-8.8736.0409,0-.0409-.01-.0918-.01-.1326-.3672-2.9273-.3468-12.1885-.2855-20.7565-.1429-1.2852-.6324-2.7641-2.091-3.1412-2.7132-.7141-3.7841.6525-3.8861,4.9364a2.5967,2.5967,0,0,1-.0408.4488c-.2517,10.3854-.4852,22.4518-.7855,33.4636h68.77c30.3786,0,53.8793-6.3531,76.1982-20.5984l.2408-.1552c30.7984-20.0874,49.1859-54.9026,49.1859-93.1311a84.1474,84.1474,0,0,0-14.5738-48.0258C371.4963,164.5221,380,144.0743,380,121.09Z"/><path class="b" d="M265.9733,143.13c-11.6183-19.01-25.2055-39.105-30.7474-51.15-4.0013-8.6964-7.537-5.8491-16.38-.3944-18.2518,11.2586-36.4493,22.6054-54.6964,33.8719a10.9869,10.9869,0,0,1-14.8944-3.5339c-9.512-15.4636-33.48-54.3093-35.88-58.312-3.9679-6.6161-7.2758-6.68-15.3265-.3391A211.9986,211.9986,0,0,1,55.5263,89.5377c-8.3414,3.8343-9.3538,6.8545-5.6671,12.6666,6.9,10.8786,12.1992,21.1469,18.972,32.1062,5.7851,9.3612,13.0412,19.415,18.93,28.71,3.3068,5.2195,2.749,8.2053-2.6365,11.46-9.3242,5.6359-22.5607,12.3984-31.8134,18.1526-10.8067,6.72-17.6287,12.434-28.5367,18.9861-6.6529,3.9962-6.0729,7.4166-.002,15.1486a210.1586,210.1586,0,0,1,25.9436,41.9266c4.4858,9.77,7.6378,10.15,13.9393,6.1334,6.6065-4.21,13.2637-8.3412,19.9307-12.457,12.9858-8.0169,26.02-15.9572,38.8731-24.1817,2.6965-1.7255,4.8226-2.5324,6.6938-2.3238,3.4277.382,5.9861,4.2238,9.5306,12.4368a172.2465,172.2465,0,0,0,17.9823,31.6905l0,0,.0387.0525c.0314.0439.0637.0871.095.1309,1.0586,1.468,8.25,11.8245,8.7337,22.174.0169.3605.0467.7211.0467,1.0812l0,.0092c-.3666,11.7953-.6672,25.9235-.8838,38.628-.0481,2.8176-.0934,5.5888-.1329,8.2225-.0918,5.9158-.153,11.2605-.1938,15.5545a5.9479,5.9479,0,0,0,.0306.6019c.5509,5.2424,8.2006,5.8648,9.7509.8158a5.7889,5.7889,0,0,0,.2652-1.3666c.2753-4.233.5-9.6184.6936-15.6056.0874-2.633.1676-5.4021.2446-8.2225.3-11.0118.5338-23.0782.7855-33.4636a2.5967,2.5967,0,0,0,.0408-.4488c.102-4.2839,1.1729-5.6505,3.8861-4.9364,1.4586.3771,1.9481,1.856,2.091,3.1412-.0613,8.568-.0817,17.8292.2855,20.7565,0,.0408.01.0917.01.1326.7037,5.0284,8.282,4.9978,8.8736-.0409a.38.38,0,0,1,.01-.102c.5246-5.3271.9592-14.8376,1.2843-24.757.0036-.1086.0075-.2153.011-.324q.0556-1.7147.1065-3.4379l0,0,0-.0011q.0138-.4629.0276-.9255c.2788-1.3666,1.7052-4.1124,8.1013-7.3333l.0012-.0006a57.0828,57.0828,0,0,0,8.5007-3.2823c7.4476-4.0649,14.3778-9.0745,21.8137-13.1637,6.5646-3.61,7.5364-7.1718,3.2116-13.7711-12.2161-18.6407-23.7763-37.713-35.4576-56.6995-5.5438-9.0106-5.3882-9.0753,3.3553-14.5022,9.3914-5.8293,19.5448-10.7761,28.9308-16.6141,10.4558-6.5035,20.1453-13.8964,30.6318-20.35C266.4851,149.7128,268.7309,147.642,265.9733,143.13Z"/></svg>