<svg width="200" height="200" viewBox="0 0 200 200" fill="none" xmlns="http://www.w3.org/2000/svg">
<path d="M197 44L120.444 76.1157C119.205 82.7052 116.397 85.7915 116.397 85.7915L107.351 91.1241C106.013 89.3209 105.391 86.8664 105.307 86.114C105.307 86.114 106.349 86.9103 107.531 86.4482C106.309 85.6981 105.384 83.5371 105.853 82.4079C106.392 81.1122 110.5 79.5535 111.325 79.0616C112.771 78.2003 112.622 77.0579 112.56 76.6191C112.56 76.6191 111.45 77.278 109.652 77.7524C107.855 78.2268 104.499 78.8109 104.499 78.8109C106.263 75.7495 106.786 74.8269 108.118 74.1871C109.451 73.548 111.856 72.3796 112.34 72.4877L113.426 72.8922C113.372 72.2801 112.994 71.1758 112.293 70.8382C111.41 70.4127 109.232 70.5472 107.476 71.0434C105.669 71.5539 102.012 72.7763 102.012 72.7763C102.012 72.7763 98.2785 72.11 95.9091 72.3497C93.1736 72.6265 89.3017 73.9308 88.8148 78.5007C88.8148 78.5007 88.4824 80.8093 86.5531 82.5487C86.5531 82.5487 87.4385 82.7464 88.3635 82.3775C88.7102 82.2392 88.9579 82.0808 89.1071 81.9713C88.3024 83.5716 86.9416 85.7689 85.3312 86.3017C85.3312 86.3017 87.5819 87.0393 89.1083 86.2954C89.0725 86.7598 90.0509 87.6283 90.125 88.0227C90.238 88.6234 89.9744 89.8251 88.6986 91.3601C86.6268 90.3357 82.8781 87.5309 80.603 85.7915C80.603 85.7915 77.7947 82.7052 76.5563 76.1157L0 44L12.6942 64.1426L59.2635 80.0991L21.7835 71.3035L31.2641 85.1189L61.1909 95.105L39.7755 91.3626L47.7309 103.449L66.9517 108.546L64.3075 111.511L85.3419 124.76L78.4649 141.123L98.4993 156L107.624 149.221L107.353 143.388L109.518 147.812L112.971 145.249L111.925 136.602L114.561 144.085L118.534 141.121L111.717 124.894L132.692 111.511L130.048 108.545L149.269 103.449L157.224 91.3625L135.809 95.1049L165.736 85.1188L175.216 71.3035L137.736 80.099L184.306 64.1425L197 44ZM96.9836 75.9355C97.4606 75.4589 100.243 75.3234 100.243 75.3234C100.243 75.3234 98.8272 77.292 97.5936 77.209C96.6484 77.1453 96.5897 76.3289 96.9836 75.9355ZM98.5025 93.4602L100.83 98.9307L98.5025 100.781L96.1519 98.958L98.5025 93.4602ZM88.9779 116.128L89.8183 114.034H107.195L108.036 116.128H88.9779ZM106.995 112.351H104.773L107.986 107.422L106.857 104.98L105.532 105.279L106.267 106.605L103.152 112.351H101.154L103.881 106.629L101.834 102.939L99.7893 104.599L99.4264 112.351H97.5869L97.224 104.599L95.1789 102.939L93.1326 106.629L95.8597 112.351H93.8614L90.7466 106.605L91.4818 105.279L90.1564 104.98L89.0275 107.422L92.2407 112.351H90.0187L86.6042 107.663L88.9613 102.564L92.54 103.371L94.5568 99.7344L98.5067 102.94L102.457 99.7344L104.474 103.371L108.051 102.564L110.409 107.663L106.995 112.351Z" fill="#0083C1"/>
<path d="M113.879 145.8H113.304V145.506H114.774V145.8H114.199V147.312H113.879V145.8Z" fill="#0083C1"/>
<path d="M115.11 145.506H115.45L116.001 146.36L116.552 145.506H116.891V147.312H116.572V146.017L116.001 146.868H115.99L115.424 146.022V147.312H115.11L115.11 145.506Z" fill="#0083C1"/>
</svg>
