<?xml version="1.0" encoding="UTF-8"?>
<svg width="95px" height="130px" viewBox="0 0 95 130" version="1.1" xmlns="http://www.w3.org/2000/svg" xmlns:xlink="http://www.w3.org/1999/xlink">
    <!-- Generator: Sketch 59 (86127) - https://sketch.com -->
    <title>LOS-GUR_Primary-Logo</title>
    <desc>Created with Sketch.</desc>
    <defs>
        <polygon id="path-1" points="9.36221269e-05 0.201486373 94.7536478 0.201486373 94.7536478 106.289308 9.36221269e-05 106.289308"></polygon>
    </defs>
    <g id="Teams" stroke="none" stroke-width="1" fill="none" fill-rule="evenodd">
        <g id="Teams-/-Primary-Logo-/-LOS---Guerrillas" transform="translate(-33.000000, -15.000000)">
            <g id="LOS-GUR_Primary-Logo" transform="translate(33.000000, 15.000000)">
                <g id="Group-3" transform="translate(0.000000, 23.609308)">
                    <mask id="mask-2" fill="white">
                        <use xlink:href="#path-1"></use>
                    </mask>
                    <g id="Clip-2"></g>
                    <path d="M94.3758302,54.3411719 C92.0848868,46.4536876 85.7492264,38.1650294 75.9398134,24.5624507 C60.4820776,3.12771279 50.1284088,0.517356394 47.4270252,0.212387841 L47.4270252,0.201486373 C47.411218,0.202849057 47.3935031,0.20502935 47.3768784,0.206937107 C47.3602537,0.20502935 47.3425388,0.202849057 47.3264591,0.201486373 L47.3264591,0.212387841 C44.625348,0.517356394 34.2716792,3.12771279 18.8139434,24.5624507 C9.0045304,38.1650294 2.66859748,46.4536876 0.377926625,54.3411719 C-2.02993501,72.7442117 7.58733962,78.8749245 14.5882621,82.8754906 C20.3022662,86.1407526 27.0508197,90.1388658 32.9395199,94.0497673 C39.9251803,98.6899769 45.7255786,103.229621 47.1103375,106.242241 C47.2956625,106.292933 47.5139644,106.310648 47.7521614,106.25505 C48.9096247,103.738447 53.060631,100.183478 58.4470461,96.3826813 C64.9849287,91.7694528 73.3068365,86.7945681 80.1652222,82.8754906 C87.1664172,78.8749245 96.7836918,72.7442117 94.3758302,54.3411719" id="Fill-1" fill="#000000" mask="url(#mask-2)"></path>
                </g>
                <path d="M37.1892935,10.6586646 C31.0738428,17.0935283 21.6980356,29.0578889 11.7624382,49.5136751 C9.3098805,54.5629623 7.29801468,59.304283 5.73501677,63.7117463 C8.23881132,59.9068616 11.3010335,55.6751845 14.8808029,50.727826 C15.7063166,49.5869874 16.5607191,48.406631 17.4429203,47.1832138 C24.2258134,37.7777002 30.8337379,30.8359182 37.0835493,26.5510964 C40.9083291,23.9287484 44.3164004,22.837239 46.2197966,22.3900063 L46.2197966,3.05679874 C44.3011384,4.41784696 40.8562746,6.80036268 37.1892935,10.6586646" id="Fill-4" fill="#FFFFFF"></path>
                <path d="M82.9912914,49.5137568 C73.0554214,29.0576981 63.7063229,17.093065 57.6129476,10.6579287 C53.9612285,6.80126205 50.5310818,4.41874633 48.6216897,3.05742558 L48.5399287,22.3914507 C50.4433249,22.8392285 53.8492159,23.9315556 57.6699078,26.5511782 C63.9197191,30.836 70.5281887,37.7775094 77.3105367,47.1830231 C78.193283,48.4067128 79.0471405,49.5873417 79.8731992,50.7281803 C83.452696,55.6749937 86.5149182,59.9069434 89.0184403,63.7118281 C87.4557149,59.3043648 85.4435765,54.5627715 82.9912914,49.5137568" id="Fill-6" fill="#FFFFFF"></path>
                <path d="M77.3106184,47.1831048 C70.5279979,37.7775912 63.9198008,30.8360818 57.6699895,26.55126 C53.8492977,23.9316373 50.4434067,22.8393103 48.5400105,22.3915325 L48.621499,3.05750734 C50.530891,4.41882809 53.9613103,6.80134382 57.6130294,10.6577379 C63.7064046,17.0931468 73.0555031,29.0577799 82.9913732,49.5138386 C85.4436583,54.5628532 87.4557966,59.3044465 89.018522,63.7116373 C86.5147275,59.9070252 83.4527778,55.6750755 79.8730084,50.7282621 C79.0472222,49.5871509 78.1930922,48.406522 77.3106184,47.1831048 L77.3106184,47.1831048 Z M46.2196331,22.3898973 C44.3165094,22.83713 40.9084382,23.9289119 37.0836583,26.55126 C30.833847,30.8360818 24.2256499,37.7775912 17.4430294,47.1831048 C16.5605556,48.406522 15.7064256,49.5868784 14.8809119,50.7279895 C11.3011426,55.6750755 8.23892034,59.9070252 5.73512579,63.7116373 C7.29785115,59.3044465 9.30998952,54.5628532 11.7622746,49.5138386 C21.6981447,29.0577799 31.0736792,17.0936918 37.1894025,10.6585556 C40.8561111,6.80025367 44.3012474,4.41773795 46.2196331,3.05696226 L46.2196331,22.3898973 Z M84.5118553,48.7755367 C64.9322746,8.46518029 47.4272432,0.000190775681 47.4272432,0.000190775681 C47.4272432,0.000190775681 29.8211006,8.46518029 10.242065,48.7755367 C4.31384696,60.9805472 1.35573375,70.4759979 0.377872117,77.9505891 C2.66881551,70.0628323 9.00447589,61.774174 18.8138889,48.1718679 C34.370283,26.6003166 44.7566562,24.0940692 47.3768239,23.8163543 C49.9969916,24.0940692 60.3833648,26.6003166 75.9397589,48.1718679 C85.7491719,61.774174 92.0848323,70.0628323 94.3757757,77.9505891 C93.3976415,70.4759979 90.4400734,60.9805472 84.5118553,48.7755367 L84.5118553,48.7755367 Z" id="Fill-8" fill="#000000"></path>
                <path d="M52.688891,75.3363627 C52.688891,75.3363627 63.7963962,68.81674 71.2816164,63.0215199 C71.2816164,63.0215199 70.0742788,67.85087 65.7278637,73.6460901 C61.3817212,79.4413103 59.9329161,82.0971803 55.8282411,78.9581027 C55.8282411,78.9581027 53.4132935,77.0263627 52.688891,75.3363627" id="Fill-10" fill="#FFFFFF"></path>
                <path d="M42.0646205,75.3363627 C42.0646205,75.3363627 30.9573878,68.81674 23.4721677,63.0215199 C23.4721677,63.0215199 24.6792327,67.85087 29.0256478,73.6460901 C33.3720629,79.4413103 34.8208679,82.0971803 38.925543,78.9581027 C38.925543,78.9581027 41.340218,77.0263627 42.0646205,75.3363627" id="Fill-12" fill="#FFFFFF"></path>
                <path d="M47.3818658,126.284753 C47.6767505,125.975696 48.0321384,125.524103 48.4463941,125.106849 C52.5507966,120.977918 62.5763312,113.536304 76.9507338,105.398086 C99.7691405,92.4801195 95.9056604,71.9556541 69.7069811,44.5499099 C69.7069811,44.5499099 81.5606918,68.051566 78.6410063,84.8741656 C76.2184277,98.8334948 55.606478,106.780392 47.3818658,120.972468 L47.371782,120.981189 L47.371782,120.922593 C39.1471698,106.730518 18.5352201,98.8334948 16.1126415,84.8741656 C13.192956,68.051566 25.0466667,44.5499099 25.0466667,44.5499099 C-1.15201258,71.9556541 -5.01549266,92.4801195 17.8026415,105.398086 C32.1773166,113.536304 42.2028512,120.977918 46.3069811,125.106849 L47.3818658,126.284753 Z" id="Fill-14" fill="#60269E"></path>
            </g>
        </g>
    </g>
</svg>