<svg id="Layer_1" data-name="Layer 1" xmlns="http://www.w3.org/2000/svg" width="384.6953" height="315.3709" viewBox="0 0 384.6953 315.3709"><defs><style>.cls-1{fill:red;}</style></defs><path class="cls-1" d="M347.2258,278.7906c-4.5-13.66-61.0233-220.15-64.8508-233.9385-5.9182,7.018-16.01,10.6561-24.3126,10.6561-18.0189,0-27.064-10.8374-49.6268-10.8374-17.2553,0-38.555,21.1883-48.5186,44.9738,4.1507-3.85,13.4038-7.9483,27.1712-7.9483,9.6267,0,19.5149,5.4236,23.701,8.1015L171.2885,276.69a137.9912,137.9912,0,0,0-17.8205-2.9927c-15.83-1.5471-37.3332.4265-58.7232,7.0031V88c5.9532-2.4,36.6716-11.8217,42.1822-45.6856-15.4614,12.7881-30.1465,14.0323-34.6917,13.9068-14.127-.3664-25.2547-13.7171-39.2719-13.7171-20.5206,0-41.2006,14.79-55.3112,44.2412,16.2241-9.7385,31.4172-4.8042,38.3524-2.213v221.85c-15.0459,12.7665-26.5033,29.6292-30.619,51.303,30.25-23.1442,68.4149-43.6278,116.3841-38.94,39.2473,3.8358,68.5229,32.4833,68.5229,32.4833l36.9241-46.3911a232.3418,232.3418,0,0,0-28.2944-15.0738l8.8962-45.1163h67.25c9.5645,37.42,17.2979,67.58,17.761,69.1126,3.5155,11.6362,11.3579,27.4728,31.3823,27.4728,27.1439,0,58.1357-32.7518,58.1357-48.5784C358.8294,308.6819,350.8349,289.7479,347.2258,278.7906ZM225.2931,206.7441,247.149,95.9076c.5771,2.3526,14.4725,56.9078,28.2386,110.8365Z" transform="translate(-7.6522 -42.3144)"/></svg>