<svg width="200" height="200" viewBox="0 0 200 200" fill="none" xmlns="http://www.w3.org/2000/svg">
<g clip-path="url(#clip0_1_2)">
<path d="M141.75 182.932C128.399 179.652 116.474 171.995 106.545 162.63C87.9098 144.498 74.2265 117.847 78.9095 91.3178C83.5532 65.0345 109.549 55.2406 133.057 63.8184C140.654 66.4079 147.72 70.1913 154.156 74.8721C154.376 75.0325 154.681 74.8594 154.652 74.5878C154.235 70.65 152.175 51.1623 151.194 41.4223C151.249 40.7561 150.838 40.7336 150.489 41.1055C148.775 42.6104 147.008 44.0609 145.371 45.6453C138.54 52.1106 128.205 47.0142 121.605 42.6339C112.648 36.8102 108.145 26.8786 102.481 18.197C102.416 18.0969 102.337 17.9762 102.209 18.0041C101.972 18.0768 102.04 18.3697 102.02 18.5654C101.923 22.252 101.794 25.9348 101.725 29.6211C101.716 30.5553 101.572 31.473 101.297 32.3619C99.7499 37.6361 93.9298 39.6247 88.9389 39.6794C72.3479 39.9847 60.2779 26.778 47.0802 18.7906C46.9503 19.0088 47.1056 19.1316 47.1867 19.2628C48.5121 21.4064 49.8445 23.5457 51.1695 25.6897C55.0106 32.51 61.0277 38.8554 60.7254 47.1717C60.631 56.0959 52.4136 62.1008 44.3249 63.6729C34.2748 65.9082 24.0967 63.0548 14.0535 62.1194C9.62536 61.5685 5.19828 61.0078 0.77304 60.4344C0.514414 60.4025 0.214047 60.2972 0 60.5545C5.58368 64.1037 11.6811 67.1428 17.4407 70.5198C23.0983 73.837 29.1768 76.6136 34.0933 81.0311C50.5313 94.8688 50.0971 119.053 32.2857 131.501C22.5153 138.455 12.6128 145.239 2.84395 152.194C2.59318 152.374 2.34662 152.561 2.11113 152.76C1.98695 152.865 1.84758 153.004 1.97252 153.185C2.07162 153.328 2.22892 153.25 2.36749 153.23C4.34086 152.948 6.31375 152.662 8.28836 152.389C17.4384 151.152 26.5775 149.837 35.7267 148.594C44.6788 147.027 54.2017 147.601 62.4525 151.66C68.2169 154.376 72.4867 159.253 77.5618 162.982C94.5307 176.076 115.745 184.923 137.424 183.923C137.804 183.861 144.49 183.734 141.75 182.932Z" fill="#FF6D17"/>
<path d="M199.37 75.3889H164.615C164.359 75.3889 164.128 75.545 164.032 75.7833L151.021 108.047L158.521 117.665H120.157L136.855 76.2558C137.023 75.8413 136.718 75.3889 136.272 75.3889H101.517C101.261 75.3889 101.03 75.545 100.934 75.7833L87.3178 109.549C89.1638 123.445 95.9862 137.689 106.999 150.294L114.686 131.233H141.672L132.075 155.03C131.908 155.445 132.213 155.897 132.659 155.897H167.413C167.67 155.897 167.901 155.741 167.997 155.503L199.954 76.2557C200.121 75.8412 199.816 75.3889 199.37 75.3889Z" fill="#216D6B"/>
</g>
<defs>
<clipPath id="clip0_1_2">
<rect width="200" height="166" fill="white" transform="translate(0 18)"/>
</clipPath>
</defs>
</svg>
