<?xml version="1.0" encoding="UTF-8"?>
<svg width="121px" height="129px" viewBox="0 0 121 129" version="1.1" xmlns="http://www.w3.org/2000/svg" xmlns:xlink="http://www.w3.org/1999/xlink">
    <!-- Generator: Sketch 58 (84663) - https://sketch.com -->
    <title>MIN-ROK_Alternate-Logo</title>
    <desc>Created with Sketch.</desc>
    <g id="Teams" stroke="none" stroke-width="1" fill="none" fill-rule="evenodd">
        <g id="Teams-/-Alternate-Logo-/-MIN---ROKKR" transform="translate(-19.000000, -15.000000)">
            <g id="MIN-ROK_Alternate-Logo" transform="translate(19.000000, 15.000000)">
                <g id="Group-20" transform="translate(0.003086, 0.198777)">
                    <path d="M120.604872,28.9235688 C120.604872,12.5876972 105.511029,0.0993486239 86.9581435,0.0993486239 C83.3041003,0.0993486239 81.5147948,0.171703364 81.5147948,0.171703364 C80.2330509,0.429914373 80.0242083,2.55901223 81.2082515,3.10982263 C81.2082515,3.10982263 84.7561682,3.77950153 86.4299182,4.20766667 C97.045983,6.92355352 104.284856,14.3595933 104.284856,21.6099755 C104.284856,25.472208 102.597465,28.9682936 99.8347639,31.1065352 L89.3781898,32.3504801 L89.4768935,33.0354648 L87.6785602,33.1292875 L86.127588,33.1292875 C85.324517,31.8553272 84.5509367,30.6555107 83.8190849,29.5491193 C80.2358596,24.1306636 74.8414614,21.3921162 74.1687917,21.0653272 L60.3809676,13.8560917 L46.5929429,21.0653272 C45.9204738,21.3921162 40.5260756,24.1306636 36.9426497,29.5491193 C36.229054,30.627682 35.4739306,31.7984771 34.6891157,33.0422232 L31.295875,32.9571468 L31.3833441,32.3504801 L20.9311836,31.1105107 C18.165875,28.9722691 16.4766775,25.4743945 16.4766775,21.6099755 C16.4766775,14.3122844 24.3216157,6.71364526 35.7144707,3.82482263 C37.0533904,3.48531193 40.2217392,2.62619878 40.2217392,2.62619878 C41.1431744,2.20041896 40.9658287,0.451978593 39.9649491,0.274470948 C39.9649491,0.274470948 38.2261991,0.0993486239 33.8031898,0.0993486239 C15.2505046,0.0993486239 0.156862654,12.5876972 0.156862654,28.9235688 C0.156862654,38.8997768 5.92781944,48.2371162 15.3389769,53.6873761 C15.3120941,53.8972844 15.2852114,54.1081865 15.2587299,54.3194862 L14.9497793,56.7849144 L25.130304,58.529578 L25.6364614,57.2570092 C26.6943164,57.3289664 28.0077577,57.4116575 29.1169707,57.4597615 C30.6238071,59.8842416 33.9012917,67.292055 26.1564614,77.4952661 L24.3426806,79.8768104 L24.2186991,80.429211 C23.0980509,85.4197003 31.4152423,94.881474 33.995983,97.6677278 L40.9327269,105.115495 L42.0620015,106.458034 C44.8030355,109.716581 47.2750417,113.188217 49.4541466,116.839547 L56.2996096,128.310358 L57.6581898,121.665251 C58.4169244,117.955083 59.4186065,115.143385 60.2963071,113.165358 C61.6956127,116.293706 62.7380201,120.065893 63.1153812,121.720511 L64.5714614,128.126688 L70.3725108,118.406902 C73.1528657,113.747376 76.3346559,109.275098 79.8296096,105.115098 L86.7709676,97.6621621 C96.9585139,86.6628502 96.8265077,81.6910459 96.5432361,80.429211 L96.4194552,79.8768104 L94.6076806,77.4986453 C86.845196,67.271581 90.1210756,59.8896086 91.6413534,57.4597615 C92.7513688,57.412055 94.0666157,57.3289664 95.1252731,57.2570092 L95.6320324,58.529578 L105.813159,56.7849144 L105.503005,54.3182936 C105.476523,54.1071927 105.449841,53.8968869 105.422356,53.6875749 C114.833915,48.2371162 120.604872,38.8997768 120.604872,28.9235688" id="Fill-2" fill="#000000"></path>
                    <path d="M22.2067083,34.4894174 C21.9832207,35.1270933 21.7723719,35.7689434 21.5697485,36.4135765 C21.713591,36.1132248 21.8618472,35.813867 22.0191312,35.5170933 C22.0718935,35.3562829 22.1356898,35.2016346 22.191662,35.0426131 C22.2219552,34.7796315 22.2520478,34.5164511 22.2887608,34.2552584 C22.2616775,34.3333777 22.2347948,34.4116957 22.2067083,34.4894174" id="Fill-4" fill="#332868"></path>
                    <path d="M78.6023935,54.0945505 L64.5854645,60.8702538 L62.9666836,74.7546116 L60.3327793,79.1125933 L57.6984738,74.7546116 L56.0798935,60.8702538 L46.7527948,55.1250092 C45.7818071,54.5235107 44.5151096,54.6958502 43.7423318,55.5299174 L42.8724552,56.4639694 C40.2947238,59.1301621 41.6785818,61.976844 41.6785818,61.976844 C43.8516682,67.9948104 51.5641991,68.3637401 51.5641991,68.3637401 C48.8570694,76.7111713 52.2641528,89.2603456 52.2641528,89.2603456 C57.2655417,108.914 55.0804182,121.146324 55.0804182,121.146324 L48.3390756,109.848052 C47.9101559,101.981859 43.0786898,83.4628226 43.0786898,83.4628226 C43.8677176,88.6628226 42.908767,103.39715 42.908767,103.39715 L35.9286898,95.8996881 C25.8773627,85.0464771 26.7877639,80.9930214 26.7877639,80.9930214 L28.2566836,79.0644893 C39.1375633,64.727318 30.4983812,54.8924404 30.4983812,54.8924404 C28.5439676,54.880315 23.8986744,54.5195352 23.8986744,54.5195352 L23.469554,55.5980979 L17.4648781,54.6397951 C17.5740139,53.7697492 17.703412,52.9078532 17.8370231,52.0819358 C17.8330108,52.0777615 17.8289985,52.0777615 17.8247855,52.0737859 C17.8370231,52.0618593 17.8532731,52.0537095 17.8695231,52.0457584 C17.8695231,52.0457584 1.22230093,41.3809878 8.1538287,20.3120428 C8.1538287,20.3120428 2.69924537,29.4050856 5.06231636,39.0877003 C3.59760957,35.9523945 2.78831944,32.5205138 2.78831944,28.9240459 C2.78831944,14.0014771 16.6716373,1.90531498 33.8043534,1.90531498 C34.5205571,1.90531498 35.2285355,1.93334251 35.9327022,1.97349541 C33.9903256,2.20188991 32.0804491,2.67497859 30.2070849,3.25242508 C28.3375324,3.85372477 26.5044923,4.5915841 24.7565139,5.50973394 C21.2764059,7.33390826 18.0434583,9.87984098 15.8703719,13.2596422 C15.3160664,14.0895352 14.8708966,14.9917829 14.4582269,15.8978073 C14.2640293,16.362945 14.0941065,16.8119817 13.9159583,17.3051468 C13.7622855,17.8022875 13.6449244,18.2833272 13.5558503,18.7804679 C13.3819151,19.7667982 13.292841,20.7610795 13.3010664,21.7593364 C13.3010664,22.757792 13.3981651,23.7560489 13.612625,24.7302538 C14.0130571,26.6868135 14.8548472,28.5471651 16.0565448,30.1228685 C16.6596003,30.908633 17.343304,31.6264159 18.0837824,32.271844 C18.7676867,32.8691682 19.5163904,33.3824098 20.2851559,33.8554985 C20.7666373,34.1602232 21.2764059,34.440896 21.8106497,34.6853914 C21.9442608,34.1723486 22.0210972,33.907578 22.0210972,33.907578 L28.3983194,34.6213853 L28.276946,35.4872569 L33.6262052,35.7679297 L32.5944306,41.5292752 C32.5944306,41.5292752 35.758767,36.0927309 39.1415756,30.9768135 C42.5243843,25.860896 47.7807577,23.3912936 47.7807577,23.3912936 L59.632625,17.3773028 C54.242841,45.6308349 61.4899398,55.7424098 61.4899398,55.7424098 C60.2114059,48.2169205 62.1698318,39.3361713 62.1698318,39.3361713 C63.6507886,57.0334648 78.1249244,54.1907584 78.6023935,54.0945505" id="Fill-6" fill="#351F65"></path>
                    <path d="M35.932642,1.97339602 C32.1614383,2.96370183 28.5396944,4.41099541 25.2176728,6.32342661 C23.5748179,7.30578135 21.9845247,8.37619419 20.5804043,9.65532263 C19.8642006,10.2766988 19.208784,10.9543287 18.5774414,11.6518364 C17.9705741,12.3735948 17.3837685,13.1072798 16.8900494,13.9051697 C16.3680432,14.6829832 15.9391235,15.5208272 15.546716,16.3668211 C15.3645556,16.7918058 15.1906204,17.244818 15.0327346,17.6618517 C14.8910988,18.0828609 14.7859753,18.5438242 14.6848642,18.9970352 C14.3004837,20.8172339 14.2559444,22.7175398 14.5432284,24.5617905 C14.84275,26.4022645 15.5102037,28.1984113 16.5461914,29.7860413 C17.0559599,30.5879067 17.6590154,31.3295428 18.3144321,32.0312248 C18.9780741,32.7289312 19.7105278,33.3582584 20.4712685,33.967708 C20.4104815,33.9317294 20.3456821,33.8915765 20.2850957,33.8553991 C19.5163302,33.3823104 18.7676265,32.8692676 18.0837222,32.2717446 C17.3432438,31.6263165 16.6595401,30.9085336 16.0564846,30.1227691 C14.854787,28.5472645 14.0131975,26.6869128 13.6125648,24.7303532 C13.3981049,23.7559495 13.3010062,22.7578914 13.3010062,21.7594358 C13.2927809,20.7609801 13.3818549,19.7666988 13.5557901,18.7803685 C13.6448642,18.2832278 13.7622253,17.8021881 13.9158981,17.3050474 C14.0940463,16.8118823 14.2639691,16.3628456 14.4581667,15.897708 C14.8708364,14.9916835 15.3160062,14.0896346 15.8703117,13.2595428 C18.0433981,9.87974159 21.2763457,7.33380887 24.7564537,5.50963456 C26.5044321,4.59148471 28.3374722,3.85382416 30.2070247,3.25232569 C32.0803889,2.67507798 33.9902654,2.2019893 35.932642,1.97339602" id="Fill-8" fill="#00B5E2"></path>
                    <path d="M77.9995787,58.3699006 L67.6617701,63.6370872 C76.3607361,68.2508945 77.9995787,58.3699006 77.9995787,58.3699006" id="Fill-10" fill="#00B5E2"></path>
                    <path d="M89.8302006,57.3785413 C89.8302006,57.3785413 79.0233488,65.2735566 91.255787,81.5583425 C91.255787,81.5583425 91.7956481,84.8433272 86.5334568,90.4424709 C78.3252006,99.1763242 68.4357716,113.975453 67.6615895,116.375483 C67.6615895,116.375483 73.2118673,108.109153 83.2670062,97.1410489 C90.8399074,88.8804832 92.6936111,87.4793058 93.683858,81.2951621 C93.683858,81.2951621 82.0929938,67.5113853 89.8302006,57.3785413" id="Fill-12" fill="#00B5E2"></path>
                    <path d="M117.434477,21.1398287 C116.402301,18.1158379 114.72494,15.3110979 112.574122,12.9635443 C108.188227,8.20125076 102.14764,5.20190826 95.909446,3.59320795 C92.7120077,2.76848318 89.489091,2.50092966 86.2204336,2.13239755 C86.8533812,2.20375841 87.4929491,2.38623547 88.1174707,2.5108685 C96.5173164,4.18556269 105.207255,7.85120489 110.868875,14.4412508 C112.764307,16.6472752 114.244261,19.1794924 115.163489,21.9059144 C117.017995,27.3569694 116.711452,33.4854557 114.52994,38.9253792 C113.429955,41.6402722 111.912285,44.21463 109.958875,46.4554404 C108.00727,48.6970459 105.577193,50.5448746 102.785202,51.81963 C105.762363,51.0459908 108.52065,49.3891865 110.808088,47.2646606 C113.069647,45.1031621 114.918535,42.5047523 116.250634,39.6568777 C118.923659,33.9818012 119.519693,27.2096758 117.434477,21.1398287" id="Fill-14" fill="#00B5E2"></path>
                    <path d="M107.881262,15.749659 C106.952605,13.041922 105.304133,10.5800719 103.146895,8.67996483 C101.274333,7.03051529 99.0490864,5.8159893 96.7478056,4.83442966 C94.7632994,3.98803823 92.7517099,3.38812997 90.6438241,2.95261009 C89.2096111,2.65623394 87.6907377,2.18910856 86.2204136,2.13245719 C92.9834228,4.16037768 100.218485,7.40202905 104.055892,13.6231453 C107.84134,19.7597813 106.913485,28.6441086 100.785228,32.9641239 C102.826509,32.5337722 104.128315,31.6112492 105.471648,30.0164633 C106.687991,28.5727477 107.599997,26.8779771 108.138855,25.0750719 C109.04404,22.0457141 108.907019,18.7408517 107.881262,15.749659" id="Fill-16" fill="#211C50"></path>
                    <path d="M76.9688673,25.9276453 C74.8188519,24.2257187 73.044392,23.3900612 73.044392,23.3900612 L61.1917222,17.3776606 C61.1917222,17.3776606 74.4442994,25.6912997 77.9994383,29.424526 C79.8916605,31.4112997 82.6678025,34.7119878 84.8511204,37.3654587 C83.6036821,33.9478899 81.2709043,29.5036391 76.9688673,25.9276453" id="Fill-18" fill="#211C50"></path>
                </g>
            </g>
        </g>
    </g>
</svg>