<?xml version="1.0" encoding="utf-8"?>
<!-- Generator: Adobe Illustrator 27.0.0, SVG Export Plug-In . SVG Version: 6.00 Build 0)  -->
<svg version="1.1" id="Layer_1" xmlns="http://www.w3.org/2000/svg" xmlns:xlink="http://www.w3.org/1999/xlink" x="0px" y="0px"
	 viewBox="0 0 104 130" style="enable-background:new 0 0 104 130;" xml:space="preserve">
<style type="text/css">
	.st0{fill:#FFF000;}
</style>
<g>
	<g>
		<path d="M33.7,46.7c-10.1,10.1-10.1,26.6,0,36.7l9.2-9.2c-5.1-5.1-5.1-13.3,0-18.3L33.7,46.7z"/>
		<path d="M15.3,28.3C-5,48.6-5,81.4,15.3,101.7l9.2-9.2c-15.2-15.2-15.2-39.8,0-55L15.3,28.3z"/>
		<path d="M70.3,83.3c10.1-10.1,10.1-26.6,0-36.7l-9.2,9.2c5.1,5.1,5.1,13.3,0,18.3L70.3,83.3z"/>
		<path d="M88.7,101.7c20.3-20.3,20.3-53.1,0-73.4l-9.2,9.2c15.2,15.2,15.2,39.8,0,55L88.7,101.7z"/>
		<path d="M42.8,55.8c5.1-5.1,13.3-5.1,18.3,0L52,65L42.8,55.8z"/>
		<path d="M15.3,28.3C35.6,8,68.4,8,88.7,28.3l9.2-9.2C72.5-6.2,31.5-6.2,6.1,19.1L15.3,28.3z"/>
		<path d="M33.7,46.7c10.1-10.1,26.6-10.1,36.7,0l9.2-9.2c-15.2-15.2-39.8-15.2-55,0L33.7,46.7z"/>
		<path d="M61.2,74.2c-5.1,5.1-13.3,5.1-18.3,0L52,65L61.2,74.2z"/>
		<path d="M97.9,110.9c-25.3,25.3-66.4,25.3-91.7,0l9.2-9.2c20.3,20.3,53.1,20.3,73.4,0L97.9,110.9z"/>
		<path d="M79.5,92.5c-15.2,15.2-39.8,15.2-55,0l9.2-9.2c10.1,10.1,26.6,10.1,36.7,0L79.5,92.5z"/>
	</g>
	<g>
		<path class="st0" d="M70.3,46.7c-10.1-10.1-26.6-10.1-36.7,0l9.2,9.2c5.1-5.1,13.3-5.1,18.3,0L70.3,46.7z"/>
		<path class="st0" d="M88.7,28.3C68.4,8,35.6,8,15.3,28.3l9.2,9.2c15.2-15.2,39.8-15.2,55,0L88.7,28.3z"/>
		<path class="st0" d="M33.7,83.3c10.1,10.1,26.6,10.1,36.7,0l-9.2-9.2c-5.1,5.1-13.3,5.1-18.3,0L33.7,83.3z"/>
		<path class="st0" d="M15.3,101.7c20.3,20.3,53.1,20.3,73.4,0l-9.2-9.2c-15.2,15.2-39.8,15.2-55,0L15.3,101.7z"/>
		<path class="st0" d="M61.2,55.8c5.1,5.1,5.1,13.3,0,18.3L52,65L61.2,55.8z"/>
		<path class="st0" d="M70.3,46.7c10.1,10.1,10.1,26.6,0,36.7l9.2,9.2c15.2-15.2,15.2-39.8,0-55L70.3,46.7z"/>
		<path class="st0" d="M42.8,74.2c-5.1-5.1-5.1-13.3,0-18.3L52,65L42.8,74.2z"/>
		<path class="st0" d="M24.5,92.5c-15.2-15.2-15.2-39.8,0-55l9.2,9.2c-10.1,10.1-10.1,26.6,0,36.7L24.5,92.5z"/>
	</g>
</g>
</svg>
