<svg xmlns="http://www.w3.org/2000/svg" xmlns:xlink="http://www.w3.org/1999/xlink" width="400" height="400" viewBox="0 0 400 400"><defs><style>.a{fill:none;}.b{clip-path:url(#a);}.c{fill:#92c951;}</style><clipPath id="a"><rect class="a" x="0.06" y="87.5403" width="399.94" height="224.9195"/></clipPath></defs><g class="b"><path d="M185.1865,190.1243l-41.369,30.056-25.57,18.5765-.4045.294-40.964,29.762,9.67-29.762,2.3895-7.3515,3.739-11.519-9.7965-7.121-31.572-22.935h51.141l3.739-11.519,12.059-37.1135,12.059,37.1135,3.739,11.519ZM219.323,87.54c-31.58,0-63.494,11.7334-89.509,35.6131L118.247,87.54,90.3345,173.4528H0l73.084,53.0945L45.1713,312.46l44.83-32.58h.008l25.563-18.5765,2.675-1.945L146.2,239.0508h.008l10.733-7.804h.008l6.462-4.6915,73.084-53.1025H146.16c21.006-30.31,54.6105-45.1075,78.7045-45.1075H345.2545a130.768,130.768,0,0,1-1.2385,18.1,107.4579,107.4579,0,0,1-13.98,40.5425c-21.2835,35.677-60.842,52.078-92.1365,52.078l-64.9545-.0155-56.1745,40.8285H242.512c70.9085,0,120.39-27.992,143.214-92.891a232.9138,232.9138,0,0,0,10.011-40.5425A375.2774,375.2774,0,0,0,400,87.54Z"/></g><polygon class="c" points="76.879 268.813 92.677 220.18 51.308 190.124 102.449 190.124 118.247 141.492 134.045 190.124 185.186 190.124 76.879 268.813 76.879 268.813"/></svg>