<?xml version="1.0" encoding="UTF-8"?>
<svg width="97px" height="130px" viewBox="0 0 97 130" version="1.1" xmlns="http://www.w3.org/2000/svg" xmlns:xlink="http://www.w3.org/1999/xlink">
    <!-- Generator: Sketch 58 (84663) - https://sketch.com -->
    <title>SEA-SUR_Alternative-Logo</title>
    <desc>Created with Sketch.</desc>
    <g id="Teams" stroke="none" stroke-width="1" fill="none" fill-rule="evenodd">
        <g id="Teams-/-Alternate-Logo-/-SEA---Surge" transform="translate(-32.000000, -15.000000)">
            <g id="SEA-SUR_Alternative-Logo" transform="translate(32.000000, 15.000000)">
                <path d="M77.2342723,107.775343 L76.9671059,107.91826 C74.5855351,109.201672 70.7196748,111.642055 67.7860157,114.634374 L67.7860157,114.634374 L67.5651518,114.859662 L57.4768796,114.859662 C59.4136073,113.463694 61.6239476,112.22427 64.082377,111.167254 C69.3191309,108.915055 74.5974031,108.074479 77.2355183,107.775343 L77.2342723,107.775343 Z M19.6432723,107.775343 C22.2810471,108.074479 27.5596597,108.915055 32.7964136,111.167254 C35.2545026,112.22427 37.4651832,113.463694 39.401911,114.859662 L29.3136387,114.859662 L29.0927749,114.634374 C26.1587881,111.642055 22.2932312,109.201672 19.9116833,107.91826 L19.6432723,107.775343 Z" id="Combined-Shape" fill="#00FFCC"></path>
                <path d="M88.9916702,18.400445 C88.8487382,18.6012304 81.6276126,26.8674607 81.9781361,44.6318586 C82.3014346,60.8478272 95.4848639,76.0462565 95.3769704,86.8376178 C95.3218534,92.4596073 94.5867749,100.807173 87.7427173,108.379162 C83.3734241,113.215026 75.3964607,115.811963 75.3964607,115.811963 L75.6278743,115.403586 C75.6516963,115.366152 77.8841571,111.415105 78.3537906,107.23945 C78.3568534,107.208822 78.3605969,107.181597 78.364,107.150969 L78.4419319,106.405681 L77.6969843,106.476806 C75.3896545,106.691204 69.3763037,107.474267 63.4071937,110.043639 C60.2014346,111.421911 57.4585026,113.024791 55.2022199,114.858743 C51.761644,117.656466 49.4543141,120.99801 48.3448901,124.915366 C47.2317225,120.99801 44.924733,117.656466 41.4841571,114.858743 C39.2278743,113.024791 36.4883455,111.421911 33.2788429,110.043639 C27.309733,107.474267 21.3001257,106.691204 18.9927958,106.476806 L18.2475079,106.405681 L18.3257801,107.150969 C18.3291832,107.181597 18.3325864,107.208822 18.3359895,107.23945 C18.8018796,111.415105 21.0380838,115.366152 21.0585026,115.403586 L21.2933194,115.811963 C21.2933194,115.811963 13.316356,113.215026 8.9463822,108.379162 C2.10300524,100.807173 1.36452356,92.4596073 1.30943949,86.8376178 C1.2042356,76.0462565 14.3883455,60.8478272 14.7082408,44.6318586 C15.048555,27.4187696 8.28310995,19.121911 7.73520419,18.4514921 C7.71478534,18.4276702 7.70117277,18.4106545 7.69436649,18.400445 C9.73284817,20.5342147 14.4972461,25.2271466 17.0424555,34.5245288 C22.6511728,54.9944241 10.5155707,69.3624869 13.2755183,84.0606545 C15.5624293,96.2507068 29.8042356,100.681597 34.477089,103.002539 C42.2430576,106.865105 45.8299686,111.170079 47.388267,113.702016 C43.1721152,101.457173 31.7545759,96.4889267 31.7545759,96.4889267 C34.0176649,96.7169372 41.2561466,96.424267 44.5571937,90.3360471 C47.2490785,85.3640576 48.0862513,77.1999215 48.3448901,74.1234817 C48.6035288,77.1999215 49.4407016,85.3640576 52.1325864,90.3360471 C55.4302304,96.424267 62.6721152,96.7169372 64.931801,96.4889267 C64.931801,96.4889267 53.5176649,101.457173 49.2977696,113.702016 C50.8564084,111.170079 54.4467225,106.865105 62.2126911,103.002539 C66.881801,100.681597 81.1239476,96.2507068 83.4142618,84.0606545 C86.1708063,69.3624869 74.0352042,54.9944241 79.6435812,34.5245288 C82.1891309,25.2271466 86.9569319,20.5342147 88.9916702,18.400445 Z M48.3447539,9.28673037 C49.1002513,18.9958927 51.5539162,28.6267827 51.5539162,28.6267827 L48.3447539,33.2040079 L45.1321885,28.6267827 C45.1321885,28.6267827 47.5858534,18.9958927 48.3447539,9.28673037 Z" id="Combined-Shape" fill="#001231"></path>
                <path d="M48.4333377,0.0847041885 L48.4333377,1.78967801 C50.0566361,15.4907251 56.7438089,28.6268508 56.7438089,28.6268508 L52.6464267,33.398055 C52.6464267,33.398055 52.3707723,34.0140236 52.1767932,41.2320864 C52.0712958,45.1967461 48.3618717,93.8548613 67.7356152,91.1731859 C76.1995681,90.0025052 80.0178927,83.0771126 77.0435471,69.1106204 C75.0833377,59.8949136 73.3749607,51.3189974 75.5325524,38.4891545 C72.3131806,41.392034 70.1760079,44.3731859 70.1521859,44.4072173 L68.5527094,46.7009346 C68.5527094,46.7009346 70.6864791,33.8983168 77.6118717,25.7954372 C83.8498298,18.4888927 93.1301963,14.6331335 93.1301963,14.6331335 C93.1301963,14.6331335 82.9309817,24.2061702 83.203233,44.5977932 C83.4108246,60.1263272 96.6014005,75.1341806 96.6014005,86.8375838 C96.6014005,96.0941283 94.0762696,103.199887 88.651322,109.203029 C84.1356937,114.195437 72.2621335,118.827113 72.2621335,118.827113 L74.5660602,114.79439 C74.5864791,114.756955 76.4136257,111.520568 77.0197251,107.913238 C77.0299346,107.868657 77.0367408,107.821353 77.0435471,107.777113 C74.4061126,108.073186 69.1278403,108.913762 63.8904058,111.166641 C61.4333377,112.225018 59.2212958,113.463762 57.2849084,114.858709 C53.4668185,117.612531 50.7302299,120.981499 49.3149828,124.797448 L49.1684162,125.207764 C48.8417147,126.157241 48.592945,127.134283 48.4333377,128.134806 L48.4333377,129.598157 C48.4129188,129.315696 48.3788874,129.033236 48.344856,128.753838 C48.3074215,129.033236 48.2767932,129.315696 48.2526309,129.598157 L48.2526309,128.134806 C47.4157984,122.934806 44.3019241,118.391613 39.4014005,114.858812 C37.4650131,113.463864 35.2529712,112.22512 32.7959031,111.166743 C27.5584686,108.913524 22.2801963,108.073288 19.6427618,107.777215 L19.6665838,107.91334 C20.2723429,111.52067 22.0998298,114.756717 22.1199084,114.794492 L24.4275785,118.826874 C24.4275785,118.826874 12.5506152,114.195539 8.03804974,109.203131 C2.61344241,103.199649 0.0845680628,96.0942304 0.0845680628,86.8373455 C0.0845680628,75.1342827 13.2754843,60.1264293 13.4830759,44.5978953 C13.6498298,32.0671885 9.86213351,23.6209319 6.91841623,18.9719005 C5.07051047,16.0556466 3.55611257,14.6331335 3.55611257,14.6331335 C3.55611257,14.6331335 12.8364791,18.4888927 19.0778403,25.7954372 C25.9998298,33.8983168 28.1335995,46.7009346 28.1335995,46.7009346 L26.534123,44.4072173 C26.5137042,44.3731859 24.3731283,41.392034 21.1537565,38.4891545 C23.3110079,51.3189974 21.6029712,59.8949136 19.6427618,69.1106204 C16.6718194,83.0771126 20.490144,90.0025052 28.9503534,91.1731859 C48.3278403,93.8548613 44.6184162,45.1967461 44.5091754,41.2320864 C44.3155366,34.0140236 44.0398822,33.398055 44.0398822,33.398055 L39.9425,28.6268508 C39.9425,28.6268508 46.6296728,15.4907251 48.2563743,1.78967801 L48.2563743,0.0847041885 C48.2835995,0.38758377 48.3108246,0.693866492 48.344856,0.996746073 C48.3754843,0.693866492 48.4061126,0.38758377 48.4333377,0.0847041885 Z M88.9916361,18.400411 C86.9568979,20.5341806 82.1890969,25.2271126 79.6435471,34.5244948 C74.0351702,54.9943901 86.1707723,69.3624529 83.4142277,84.0606204 C81.1239136,96.2506728 66.881767,100.681563 62.2126571,103.002505 C54.4466885,106.865071 50.8563743,111.170045 49.2977356,113.701982 C53.5176309,101.457479 64.931767,96.4888927 64.931767,96.4888927 C62.6720812,96.7169031 55.4301963,96.424233 52.1325524,90.3360131 C49.4406675,85.3640236 48.6034948,77.1998874 48.344856,74.1234476 C48.0862173,77.1998874 47.2490445,85.3640236 44.5571597,90.3360131 C41.2561126,96.424233 34.0176309,96.7169031 31.7545419,96.4888927 C31.7545419,96.4888927 43.1720812,101.457479 47.388233,113.701982 C45.8299346,111.170045 42.2430236,106.865071 34.477055,103.002505 C29.8045419,100.681563 15.5623953,96.2506728 13.2754843,84.0606204 C10.5155366,69.3624529 22.6511387,54.9943901 17.0427618,34.5244948 C14.497212,25.2271126 9.73281414,20.5341806 7.69433246,18.400411 L7.7096466,18.4208298 L7.73517016,18.4515602 C8.28307592,19.1216387 15.0485209,27.4188377 14.7082068,44.6319267 C14.3883115,60.8478953 1.20420157,76.0459843 1.31003927,86.8373455 C1.36448953,92.4593351 2.1029712,100.807241 8.94634817,108.37923 C13.316322,113.215094 21.2932853,115.812031 21.2932853,115.812031 L21.0584686,115.403654 C21.0380497,115.36588 18.8018455,111.415173 18.3359555,107.239518 L18.3257461,107.151037 L18.2474738,106.405408 L18.9927618,106.476874 C21.3000916,106.691272 27.309699,107.474335 33.2791492,110.043707 C36.4883115,111.421979 39.2278403,113.024859 41.484123,114.858812 C44.7972702,117.552915 47.0592454,120.751303 48.216261,124.482541 L48.344856,124.915332 C49.4542801,120.997976 51.7616099,117.656432 55.2021859,114.858709 C57.4584686,113.024757 60.2014005,111.421877 63.4071597,110.043605 C69.3762696,107.474233 75.3896204,106.69117 77.6969503,106.477113 L78.4418979,106.405647 L78.363966,107.150935 L78.3537565,107.239416 C77.884123,111.415071 75.6516623,115.366118 75.6278403,115.403552 L75.3964267,115.811929 C75.3964267,115.811929 83.3733901,113.214992 87.7430236,108.379128 C94.5867408,100.807139 95.3218194,92.4595733 95.3762696,86.8375838 C95.4851702,76.0462225 82.3014005,60.8477932 81.9781021,44.6318246 C81.6275785,26.8674267 88.8490445,18.6011963 88.9916361,18.400411 Z M48.446345,110.531893 L48.4478133,110.542679 C48.4473541,110.539258 48.446859,110.53562 48.446345,110.531893 Z M48.434699,110.517866 L48.4355681,110.517704 L48.4382273,110.495825 C48.441233,110.469515 48.437966,110.49173 48.434699,110.517866 Z M48.4405681,110.495704 L48.4435681,110.517704 L48.4445681,110.517866 L48.4419218,110.499696 L48.4419218,110.499696 L48.4405681,110.495704 Z M48.4395205,110.484494 L48.4385681,110.486704 L48.4405681,110.495704 C48.4396294,110.484412 48.4394198,110.483285 48.4395205,110.484494 Z M48.344856,9.28679843 C47.5859555,18.9959607 45.1322906,28.6268508 45.1322906,28.6268508 L48.344856,33.2040759 L51.5540183,28.6268508 C51.5540183,28.6268508 49.1003534,18.9959607 48.344856,9.28679843 Z M48.4445681,110.525353 L48.4435681,110.517704 L48.4355681,110.517704 C48.4325209,110.539579 48.4309827,110.549407 48.4299563,110.555739 L48.4285681,110.558704 L48.4310835,110.542679 L48.4310835,110.542679 L48.4340183,110.52161 C47.6468717,104.316322 44.5554581,101.503626 44.5554581,101.503626 C44.5554581,101.503626 47.0925,101.602997 48.5031021,101.602997 C49.9133639,101.602997 52.3231283,101.503626 52.3231283,101.503626 C52.3231283,101.503626 49.2317147,104.316322 48.4449084,110.52161 C48.4453945,110.525045 48.4458776,110.528506 48.446345,110.531893 L48.4445681,110.525353 Z" id="Combined-Shape" fill="#00667D"></path>
            </g>
        </g>
    </g>
</svg>