<svg id="Layer_1" data-name="Layer 1" xmlns="http://www.w3.org/2000/svg" viewBox="0 0 1280 740"><defs><style>.cls-1{fill:#782cf2;}</style></defs><title>toronto_ultra_logo_svg</title><path class="cls-1" d="M107.64,733C29.31,733,.24,687,.24,633.69V125.78h105v495.8c0,10.49,3.23,15.34,10.5,15.34S127,632.07,127,621.58V125.78H231.18V633.69c0,52.49-33.91,99.32-107.39,99.32Z"/><path class="cls-1" d="M365.23,125.78V631.26h64.6v95.29H263.49V125.78Z"/><path class="cls-1" d="M464.09,217.83H395.23V125.78H618.67v92.05H565V726.55H464.09Z"/><path class="cls-1" d="M747.61,726.55H645.06V125.78H804.14c35.53,0,63.79,22.61,63.79,71.87V339c0,41.18-19.38,57.32-36.34,64.6,17,7.27,37.95,24.22,37.95,55.71v238.2q0,18.18,4.85,26.65v2.43H773.45c-4-5.65-6.46-13.73-6.46-25V476.23c0-8.89-1.61-13.73-11.3-13.73h-8.08Zm0-349.64h8.08c7.26,0,11.3-4.84,11.3-13.73V215.41c0-9.69-1.61-13.72-10.49-13.72h-8.89Z"/><path class="cls-1" d="M1014.23,618.34H979.51l-5.65,108.21h-88L935.9,125.78h129.2l54.1,600.77h-99.32Zm-17-316.53L985.16,530.33h24.22Z"/><path class="cls-1" d="M303.54,6.63H286.83v44h-6.7v-44H263.49V.84h40.05Z"/><path class="cls-1" d="M393.72,12.9V38.57c0,8.88-4.09,12.76-13.54,12.76H368.12c-9.45,0-13.54-3.88-13.54-12.76V12.9C354.58,4,358.67.14,368.12.14h12.06C389.63.14,393.72,4,393.72,12.9Zm-15.23-7h-8.68c-6.41,0-8.53,2-8.53,7.9V37.65c0,5.85,2.12,7.9,8.53,7.9h8.68c6.41,0,8.53-2,8.53-7.9V13.82C387,7.9,384.9,5.92,378.49,5.92Z"/><path class="cls-1" d="M466.83,30.53H457v20.1h-6.7V.84h23.9c9.38,0,13.54,3.88,13.54,12.77v4.3c0,8.53-3.88,12.34-12.55,12.62l16.22,20.1h-8ZM457,24.75H472.4c6.42,0,8.6-1.91,8.6-7.76V14.52c0-5.92-2.18-7.89-8.6-7.89H457Z"/><path class="cls-1" d="M581.26,12.9V38.57c0,8.88-4.09,12.76-13.54,12.76H555.67c-9.45,0-13.54-3.88-13.54-12.76V12.9C542.13,4,546.22.14,555.67.14h12.05C577.17.14,581.26,4,581.26,12.9ZM566,5.92h-8.67c-6.42,0-8.53,2-8.53,7.9V37.65c0,5.85,2.11,7.9,8.53,7.9H566c6.42,0,8.53-2,8.53-7.9V13.82C574.56,7.9,572.45,5.92,566,5.92Z"/><path class="cls-1" d="M676.16.84V50.63h-6.77l-25-38.93V50.63h-6.7V.84h6.7l25.1,39V.84Z"/><path class="cls-1" d="M767.19,6.63H750.48v44h-6.7v-44H727.13V.84h40.06Z"/><path class="cls-1" d="M856,12.9V38.57c0,8.88-4.09,12.76-13.53,12.76H830.36c-9.45,0-13.54-3.88-13.54-12.76V12.9C816.82,4,820.91.14,830.36.14h12.06C851.86.14,856,4,856,12.9Zm-15.23-7h-8.67c-6.42,0-8.53,2-8.53,7.9V37.65c0,5.85,2.11,7.9,8.53,7.9h8.67c6.42,0,8.54-2,8.54-7.9V13.82C849.26,7.9,847.14,5.92,840.72,5.92Z"/><path class="cls-1" d="M1221.77,148.58v-50a2.47,2.47,0,0,0-.41-1.36l-2.45-3.61a5.44,5.44,0,0,0,3.58-3.5c1.78-6.14-2.29-9-2.29-9a8.56,8.56,0,0,0-5.86,4.76,8.3,8.3,0,0,0-2.35-4.76s-4.35.56-6.35,5.79h-6.08a3.54,3.54,0,0,0-2.8,1.5l-5.12,7.36a3.08,3.08,0,0,0-.22,3.56l4.14,7.06a15.36,15.36,0,0,1,2.09,7.74V171.8a.65.65,0,0,0,1.12.46l22.52-22.51A1.65,1.65,0,0,0,1221.77,148.58Z"/><path class="cls-1" d="M1192.81,172.26a.65.65,0,0,0,1.12-.46V130.93c0-20.66-21.89-25-28.87-25.89a1.13,1.13,0,0,0-1.15,1.62c1.88,3.79,6,10.68,5.9,20.58v21.34a1.65,1.65,0,0,0,.48,1.17Z"/><path class="cls-1" d="M1196,209.74a84,84,0,1,1,84-84A84,84,0,0,1,1196,209.74Zm0-152.15a68.2,68.2,0,1,0,68.19,68.19A68.27,68.27,0,0,0,1196,57.59Z"/></svg>