<?xml version="1.0" encoding="UTF-8"?>
<svg width="105px" height="130px" viewBox="0 0 105 130" version="1.1" xmlns="http://www.w3.org/2000/svg" xmlns:xlink="http://www.w3.org/1999/xlink">
    <!-- Generator: Sketch 58 (84663) - https://sketch.com -->
    <title>PAR-LGN_Alternate-Logo</title>
    <desc>Created with Sketch.</desc>
    <g id="Teams" stroke="none" stroke-width="1" fill="none" fill-rule="evenodd">
        <g id="Teams-/-Alternate-Logo-/-PAR---Legion" transform="translate(-28.000000, -15.000000)">
            <g id="PAR-LGN_Alternate-Logo" transform="translate(28.000000, 15.000000)">
                <path d="M52.2336715,111.305859 L41.1653682,111.305859 C39.0323357,111.305859 37.0823357,110.100661 36.1282202,108.19243 L33.9304224,103.796834 L52.2336715,103.796834" id="Fill-1" fill="#9C182F"></path>
                <path d="M52.2336715,103.796834 L70.5369206,103.796834 L68.3386534,108.19243 C67.3850072,110.100661 65.4345379,111.305859 63.3015054,111.305859 L52.2336715,111.305859" id="Fill-3" fill="#EE7623"></path>
                <path d="M45.7838412,103.796834 C45.389148,102.988206 45.1460433,102.545173 45.1460433,102.545173 C45.1460433,102.545173 36.4247798,82.7753177 21.7587148,85.806148 C4.51658484,89.3691805 15.8983899,110.454054 15.8983899,110.454054 C14.6960072,106.166401 13.0341661,94.4058592 23.5299061,92.5741264 C33.4422888,90.8437653 41.0320361,101.832755 42.3015307,103.796834 L45.7838412,103.796834 Z" id="Fill-5" fill="#9C182F"></path>
                <path d="M45.7838412,103.796834 L52.2355018,103.796834 L52.2336245,0.469361011 C52.2336245,0.469361011 45.7838412,23.0555704 29.8337329,34.5542347 C29.8337329,34.5542347 48.7658628,58.1518159 45.2061155,93.9623574 C41.7857545,85.4766895 32.4576679,65.2342347 18.8419278,65.8602996 C4.42319134,66.5229711 -1.9946787,80.0870866 0.541494585,91.0521408 C2.6153935,100.01604 12.4137329,107.891599 15.8969819,110.451238 C15.8336245,110.33391 4.56492419,89.3593249 21.7587148,85.806148 C36.4247798,82.7753177 45.1460433,102.545173 45.1460433,102.545173 C45.1460433,102.545173 45.389148,102.988206 45.7838412,103.796834" id="Fill-7" fill="#EE7623"></path>
                <path d="M58.6867401,103.796834 L52.2350794,103.796834 L52.2369567,0.469361011 C52.2369567,0.469361011 58.6867401,23.0555704 74.6368484,34.5542347 C74.6368484,34.5542347 55.7047184,58.1518159 59.2644657,93.9623574 C62.6848267,85.4766895 72.0129134,65.2342347 85.6286534,65.8602996 C100.04739,66.5229711 106.46526,80.0870866 103.929087,91.0521408 C101.855188,100.01604 92.0568484,107.891599 88.5735993,110.451238 C88.6369567,110.33391 99.905657,89.3593249 82.7118664,85.806148 C68.0458014,82.7753177 59.3245379,102.545173 59.3245379,102.545173 C59.3245379,102.545173 59.0814332,102.988206 58.6867401,103.796834" id="Fill-10" fill="#9C182F"></path>
                <path d="M52.1064874,126.324379 C52.1243213,126.5703 52.1445018,126.81622 52.1590505,127.063079 C52.1445018,126.815751 52.1243213,126.5703 52.1064874,126.324379 M52.0018303,125.110733 C52.0248267,125.342574 52.0497004,125.573007 52.0694116,125.806256 C52.0497004,125.573007 52.0248267,125.342574 52.0018303,125.110733 M51.8633827,123.868928 C51.8920108,124.09983 51.9225162,124.329325 51.9483285,124.561635 C51.9225162,124.329325 51.8920108,124.09983 51.8633827,123.868928 M51.7075704,122.713477 C51.7376065,122.919505 51.7699892,123.124596 51.798148,123.332032 C51.7699892,123.124596 51.7376065,122.919505 51.7075704,122.713477 M51.5315776,121.592285 C51.5611444,121.767339 51.5925884,121.940986 51.620278,122.117448 C51.5925884,121.940986 51.5611444,121.767339 51.5315776,121.592285 M51.3288339,120.453729 C51.3584007,120.61048 51.3903141,120.764884 51.4184729,120.922574 C51.3903141,120.764884 51.3584007,120.61048 51.3288339,120.453729 M51.1382924,119.484126 C51.1565957,119.571888 51.1763069,119.658711 51.1941408,119.746473 C51.1763069,119.658242 51.1565957,119.571888 51.1382924,119.484126 M50.9172455,118.454451 C50.9275704,118.501383 50.9388339,118.546906 50.9496282,118.593838 C50.9388339,118.546906 50.9275704,118.501383 50.9172455,118.454451 M52.1829856,127.613116 C52.1937798,127.852466 52.2069206,128.090877 52.2139603,128.330697 C52.2069206,128.090877 52.1937798,127.852466 52.1829856,127.613116 M52.2355487,129.612863 L52.2355487,111.305859 L48.8752599,111.305859 L46.330639,111.305859 C48.353852,115.730552 50.7224801,122.003874 52.2336715,129.612863 C52.2336715,129.380552 52.2266318,129.149181 52.2233466,128.91687 C52.2266318,129.144957 52.2336715,129.372574 52.2336715,129.600661 C52.2341408,129.604884 52.2350794,129.608639 52.2355487,129.612863" id="Fill-12" fill="#EE7623"></path>
                <path d="M82.7086282,85.8059603 C68.0425632,82.77513 59.3212996,102.544986 59.3212996,102.544986 C59.3212996,102.544986 59.0777256,102.988487 58.6835018,103.796646 L62.1658123,103.796646 C63.4348375,101.833036 71.0250542,90.8440469 80.9374368,92.5739386 C91.4327076,94.4056715 89.7708664,106.166213 88.5684838,110.453866 C88.5684838,110.453866 99.9502888,89.3694621 82.7086282,85.8059603" id="Fill-15" fill="#EE7623"></path>
                <path d="M58.1365632,111.305859 L55.5933502,111.305859 L55.5919422,111.305859 L52.2354079,111.305859 L52.2358773,129.458928 C52.2354079,129.510083 52.2335307,129.561238 52.2335307,129.612863 C53.744722,122.003874 56.1128809,115.730552 58.1365632,111.305859" id="Fill-17" fill="#9C182F"></path>
            </g>
        </g>
    </g>
</svg>