<?xml version="1.0" encoding="UTF-8"?>
<svg viewBox="0 0 1000 500" xmlns="http://www.w3.org/2000/svg">
 <g transform="scale(8.3333)" font-size="12">
  <path d="m0 0h120v60h-120z" fill="#006"/>
  <path d="m0 0v3.3541l53.292 26.646h6.7082v-3.3541l-53.292-26.646h-6.7082zm60 0v3.354l-53.292 26.646h-6.7082v-3.3542l53.292-26.646h6.7082z" fill="#fff"/>
  <path d="m25 0v30h10v-30h-10zm-25 10v10h60v-10h-60z" fill="#fff"/>
  <path d="m0 12v6h60v-6h-60zm27-12v30h6v-30h-6z" fill="#c00"/>
  <path d="m0 30 20-10h4.4721l-20 10h-4.4721zm0-30 20 10h-4.4721l-15.528-7.7639v-2.2361zm35.528 10 20-10h4.4721l-20 10h-4.4721zm24.472 20-20-10h4.4721l15.528 7.7639v2.2361z" fill="#c00"/>
  <path d="m30,36 1.7355,5.3961 5.301-2.0075-3.1368,4.7213 4.8747,2.8928-5.6471.4913 .7777,5.6147-3.905-4.1087-3.905,4.1087 .7777-5.6147-5.6471-.4913 4.8747-2.8928-3.1368-4.7213 5.301,2.0075 1.7355-5.3961z" fill="#fff" fill-rule="evenodd"/>
  <path d="m90,45.7143 .8264,2.5696 2.5243-.956-1.4937,2.2482 2.3213,1.3776-2.6891.2339 .3703,2.6737-1.8595-1.9565-1.8595,1.9565 .3703-2.6737-2.6891-.2339 2.3213-1.3776-1.4937-2.2482 2.5243.956 .8264-2.5696z" fill="#fff" fill-rule="evenodd"/>
  <path d="m90,5.71429 .8264,2.56958 2.5243-.95597-1.4937,2.24825 2.3213,1.37755-2.6891.2339 .3703,2.6737-1.8595-1.9565-1.8595,1.9565 .3703-2.6737-2.6891-.2339 2.3213-1.37755-1.4937-2.24825 2.5243.95597 .8264-2.56958z" fill="#fff" fill-rule="evenodd"/>
  <path d="m75,21.9643 .8264,2.5696 2.5243-.956-1.4937,2.2483 2.3213,1.3775-2.6891.2339 .3703,2.6737-1.8595-1.9565-1.8595,1.9565 .3703-2.6737-2.6891-.2339 2.3213-1.3775-1.4937-2.2483 2.5243.956 .8264-2.5696z" fill="#fff" fill-rule="evenodd"/>
  <path d="m103.333,17.9643 .827,2.5696 2.524-.956-1.494,2.2483 2.322,1.3775-2.689.2339 .37,2.6737-1.86-1.9565-1.859,1.9565 .37-2.6737-2.6889-.2339 2.3209-1.3775-1.4934-2.2483 2.5244.956 .826-2.5696z" fill="#fff" fill-rule="evenodd"/>
  <path d="m96,30 .6531,1.6011 1.7245.1264-1.3209,1.1159 .4128,1.6791-1.4695-.9114-1.4695.9114 .4128-1.6791-1.3209-1.1159 1.7245-.1264 .6531-1.6011z" fill="#fff" fill-rule="evenodd"/>
 </g>
</svg>
