<?xml version="1.0" encoding="UTF-8"?>
<svg viewBox="0 0 1062.99 708.661" xmlns="http://www.w3.org/2000/svg">
 <path d="m0 0h1063v708.66h-1063z" fill="#f50013" fill-rule="evenodd"/>
 <path d="m0 0h1063v354.33h-1063z" fill="#00189a" fill-rule="evenodd"/>
 <path d="m0 0 609.96 353.88-609.96 353.42v-707.3z" fill="#feffff" fill-rule="evenodd"/>
 <path transform="matrix(.87393 1.9702 -2.0604 .91397 897.48 -367.59)" d="m266.186,534.45-10.408-7.432-10.357,7.505 3.852-12.196-10.338-7.531 12.79-.105 3.967-12.159 4.052,12.131 12.79.016-10.285,7.602 3.937,12.169z" fill="#eca300" fill-rule="evenodd"/>
 <path transform="matrix(.70232 -.71186 .71186 .70232 -193.88 244.12)" d="m212.741,285.315 11.383-41.98-7.826-9.962-9.249,51.229 5.692.713zm-24.192,0-7.115-57.633 13.518-15.653 13.519,12.807-6.403,59.766-13.519.713zm-10.673.712-11.383-41.98 7.826-9.962 9.249,51.229-5.692.713z" fill="#eca300" fill-rule="evenodd"/>
 <path transform="matrix(1,.00099,-.00099,1,.35201,-.19373)" d="m212.741,285.315 11.383-41.98-7.826-9.962-9.249,51.229 5.692.713zm-24.192,0-7.115-57.633 13.518-15.653 13.519,12.807-6.403,59.766-13.519.713zm-10.673.712-11.383-41.98 7.826-9.962 9.249,51.229-5.692.713z" fill="#eca300" fill-rule="evenodd"/>
 <path transform="matrix(.69319 .72076 -.72076 .69319 314.87 -31.94)" d="m212.741,285.315 11.383-41.98-7.826-9.962-9.249,51.229 5.692.713zm-24.192,0-7.115-57.633 13.518-15.653 13.519,12.807-6.403,59.766-13.519.713zm-10.673.712-11.383-41.98 7.826-9.962 9.249,51.229-5.692.713z" fill="#eca300" fill-rule="evenodd"/>
 <path transform="matrix(-.00152 1 -1 -.00152 549.12 159.46)" d="m212.741,285.315 11.383-41.98-7.826-9.962-9.249,51.229 5.692.713zm-24.192,0-7.115-57.633 13.518-15.653 13.519,12.807-6.403,59.766-13.519.713zm-10.673.712-11.383-41.98 7.826-9.962 9.249,51.229-5.692.713z" fill="#eca300" fill-rule="evenodd"/>
 <path transform="matrix(-.69917 .71495 -.71495 -.69917 584.26 461.92)" d="m212.741,285.315 11.383-41.98-7.826-9.962-9.249,51.229 5.692.713zm-24.192,0-7.115-57.633 13.518-15.653 13.519,12.807-6.403,59.766-13.519.713zm-10.673.712-11.383-41.98 7.826-9.962 9.249,51.229-5.692.713z" fill="#eca300" fill-rule="evenodd"/>
 <path transform="matrix(-.99998 .00588 -.00588 -.99998 391.98 706.6)" d="m212.741,285.315 11.383-41.98-7.826-9.962-9.249,51.229 5.692.713zm-24.192,0-7.115-57.633 13.518-15.653 13.519,12.807-6.403,59.766-13.519.713zm-10.673.712-11.383-41.98 7.826-9.962 9.249,51.229-5.692.713z" fill="#eca300" fill-rule="evenodd"/>
 <path transform="matrix(-.70468 -.70952 .70952 -.70468 81.249 741.57)" d="m212.741,285.315 11.383-41.98-7.826-9.962-9.249,51.229 5.692.713zm-24.192,0-7.115-57.633 13.518-15.653 13.519,12.807-6.403,59.766-13.519.713zm-10.673.712-11.383-41.98 7.826-9.962 9.249,51.229-5.692.713z" fill="#eca300" fill-rule="evenodd"/>
 <path transform="matrix(-.00558 -.99998 .99998 -.00558 -157.83 550.8)" d="m212.741,285.315 11.383-41.98-7.826-9.962-9.249,51.229 5.692.713zm-24.192,0-7.115-57.633 13.518-15.653 13.519,12.807-6.403,59.766-13.519.713zm-10.673.712-11.383-41.98 7.826-9.962 9.249,51.229-5.692.713z" fill="#eca300" fill-rule="evenodd"/>
 <path transform="matrix(2.0518 .65988 -.69011 2.1458 327.17 -931.59)" d="m266.186,534.45-10.408-7.432-10.357,7.505 3.852-12.196-10.338-7.531 12.79-.105 3.967-12.159 4.052,12.131 12.79.016-10.285,7.602 3.937,12.169z" fill="#eca300" fill-rule="evenodd"/>
 <path transform="matrix(1.579 1.467 -1.5342 1.6513 444.17 -1137)" d="m266.186,534.45-10.408-7.432-10.357,7.505 3.852-12.196-10.338-7.531 12.79-.105 3.967-12.159 4.052,12.131 12.79.016-10.285,7.602 3.937,12.169z" fill="#eca300" fill-rule="evenodd"/>
 <path transform="translate(4.269 -2.397e-5)" d="m263.71 353.88a73.029 73.029 0 1 0 -146.06 0 73.029 73.029 0 1 0 146.06 0" fill="#eca300" fill-rule="evenodd"/>
</svg>
