<?xml version="1.0" encoding="utf-8"?>
<!-- Generator: Adobe Illustrator 28.0.0, SVG Export Plug-In . SVG Version: 6.00 Build 0)  -->
<svg version="1.1" id="Layer_1" xmlns="http://www.w3.org/2000/svg" xmlns:xlink="http://www.w3.org/1999/xlink" x="0px" y="0px"
	 viewBox="0 0 1243.9 320.2" style="enable-background:new 0 0 1243.9 320.2;" xml:space="preserve">
<style type="text/css">
	.st0{fill:#FFFFFF;}
	.st1{fill-rule:evenodd;clip-rule:evenodd;fill:#FFFFFF;}
</style>
<g>
	<path class="st0" d="M1021.5,110.2c-7.3,0-13.2,5.9-13.2,13.2s5.9,13.2,13.2,13.2s13.2-5.9,13.2-13.2S1028.8,110.2,1021.5,110.2z
		 M1021.5,134.5c-6.2,0-11.2-5-11.2-11.2s5-11.2,11.2-11.2s11.2,5,11.2,11.2S1027.7,134.5,1021.5,134.5z M1025.4,124.4
		c-0.2-0.2-0.4-0.3-0.7-0.4v-0.4h0.8c0.7,0,1.2-0.2,1.6-0.5c0.4-0.4,0.6-0.9,0.6-1.5v-2.4c0-0.7-0.2-1.3-0.6-1.7
		c-0.4-0.4-1-0.6-1.8-0.6h-9.4v12.5h2.3v-5h4.7l2.3,5h2.8l-1.9-4C1025.8,125,1025.6,124.6,1025.4,124.4L1025.4,124.4L1025.4,124.4z
		 M1018.1,122.6v-3.8h6.9c0.1,0,0.2,0,0.2,0.1c0.1,0,0.1,0.1,0.1,0.3v3.1c0,0.1,0,0.2-0.1,0.3c-0.1,0-0.2,0.1-0.2,0.1L1018.1,122.6
		L1018.1,122.6z"/>
	<path class="st1" d="M532.8,112.5h-24.7V8.7h-35.3v127.9h60V112.5L532.8,112.5z M598.8,112.5h-24.7V8.7h-35.3v127.9h60V112.5
		L598.8,112.5z M306.6,135.1c0.9,1,2.3,1.5,3.6,1.5h47.6c1.4,0,2.7-0.5,3.6-1.5c3.3-3.5,8.6-9.5,13-15.2c0.7-0.9,1-2.1,1-3.2V81.3
		h-32.2v34h-18.5V30h18.5v34h32.2V28.5c0-1.1-0.3-2.3-1-3.2c-4.4-5.7-9.7-11.7-13-15.2c-0.9-1-2.3-1.5-3.6-1.5h-47.5
		c-1.4,0-2.7,0.5-3.6,1.5c-3.3,3.5-8.6,9.5-13,15.2c-0.7,0.9-1,2.1-1,3.2v88.2c0,1.1,0.3,2.3,1,3.2
		C298,125.6,303.3,131.6,306.6,135.1L306.6,135.1z M415,98.9h18.5v37.7h32.2v-108c0-1.1-0.3-2.3-1-3.2c-4.4-5.7-9.7-11.7-13-15.2
		c-0.9-1-2.3-1.5-3.6-1.5h-47.6c-1.4,0-2.7,0.5-3.6,1.5c-3.3,3.5-8.6,9.5-13,15.2c-0.7,0.9-1,2.1-1,3.2v108H415L415,98.9L415,98.9
		L415,98.9z M415,30h18.5v47.6H415V30z M785.1,135.1c0.9,1,2.3,1.5,3.6,1.5h47.6c1.4,0,2.7-0.5,3.6-1.5c3.3-3.5,8.6-9.5,13-15.2
		c0.7-0.9,1-2.1,1-3.2V8.7h-32.2v106.6h-18.5V8.7h-32.2v108c0,1.1,0.3,2.3,1,3.2C776.5,125.6,781.9,131.6,785.1,135.1L785.1,135.1
		L785.1,135.1z M749.6,135.1c3.3-3.5,8.6-9.5,13-15.2c0.7-0.9,1-2.1,1-3.2V28.5c0-1.1-0.3-2.3-1-3.2c-4.4-5.7-9.7-11.7-13-15.2
		c-0.9-1-2.3-1.5-3.6-1.5h-65.2v127.9H746C747.4,136.6,748.7,136.1,749.6,135.1L749.6,135.1L749.6,135.1z M731.5,115.3H713V30h18.5
		V115.3z M958.9,92.9v43.6h34.7V92.9l21.1-25.5c0.7-0.9,1.1-1.9,1.1-3V8.7h-30.1v47.5l-7.8,9.3h-3.2l-7.8-9.3V8.7h-30v55.8
		c0,1.1,0.4,2.1,1.1,3L958.9,92.9L958.9,92.9L958.9,92.9z M595.7,88.9c0.4,0.5,1,0.7,1.6,0.7h24.1c0.6,0,1.2-0.2,1.6-0.7
		c1.5-1.6,2.7-3.1,4.6-5.6c0.3-0.4,0.5-0.9,0.5-1.4V41.9c0-0.5-0.2-1-0.5-1.4c-2-2.5-3.2-4.1-4.6-5.6c-0.4-0.5-1-0.7-1.6-0.7h-24.1
		c-0.6,0-1.2,0.2-1.6,0.7c-1.5,1.6-2.7,3.1-4.6,5.6c-0.3,0.4-0.5,0.9-0.5,1.4v39.9c0,0.5,0.2,1,0.5,1.4
		C593,85.8,594.2,87.3,595.7,88.9L595.7,88.9L595.7,88.9z M605,46.1h8.8v31.5H605V46.1L605,46.1z M648.6,71.3H664V58.4h-15.4V47H666
		V34.2h-31.8v55.3h14.4L648.6,71.3L648.6,71.3L648.6,71.3z M879.6,136.6h32.2V34.8h18.7V8.7h-69.6v26.2h18.7L879.6,136.6
		L879.6,136.6z"/>
	<path class="st0" d="M394.9,304.7H15.3v-13.1l93.1-14.9v-18.7l53.6-18.7v-18.2l66.1-53.2h53.6v20l-102.9,45.7l162.1-55.5h80.6v33.1
		l-289.7,61.1l181.6-27.5h81.5L394.9,304.7L394.9,304.7z"/>
	<path class="st0" d="M441.7,178.4h39.7v95.1h66.6v31.2H441.7V178.4L441.7,178.4L441.7,178.4z"/>
	<path class="st0" d="M557.2,178.4h117.1v27h-77.5v22.5h74.9V255h-74.9v22.8h77.5v27H557.2V178.4L557.2,178.4z"/>
	<path class="st0" d="M834,298.9c-4.2-4.2-6.3-10-6.3-17.5v-79.7c0-7.5,2.1-13.4,6.3-17.6s10.1-6.3,17.7-6.3h87.4
		c7.5,0,13.3,2.1,17.3,6.2c4,4.1,6.1,10,6.1,17.5v21.6h-39.3v-14c0-0.8-0.2-1.5-0.6-1.9s-0.9-0.6-1.7-0.6h-50.9
		c-0.8,0-1.4,0.2-1.8,0.6c-0.4,0.4-0.6,1-0.6,1.9V274c0,0.8,0.2,1.4,0.6,1.8s1,0.6,1.8,0.6H921c0.8,0,1.4-0.2,1.7-0.6
		c0.4-0.4,0.6-1,0.6-1.8v-15.8H895V237h67.5v44.6c0,7.5-2,13.3-6.1,17.5c-4,4.1-9.8,6.2-17.3,6.2h-87.4
		C844.1,305.3,838.2,303.2,834,298.9L834,298.9z"/>
	<path class="st0" d="M977.9,299.1c-4.2-4.2-6.2-10-6.2-17.5V178.4h39.7v93.8c0,0.8,0.2,1.5,0.7,1.9c0.4,0.4,1.1,0.6,1.9,0.6h50.4
		c0.8,0,1.4-0.2,1.8-0.6c0.4-0.4,0.6-1,0.6-1.9v-93.8h40v103.2c0,7.5-2.1,13.3-6.2,17.5c-4.2,4.2-10.1,6.3-17.8,6.3h-86.9
		C988,305.4,982.1,303.3,977.9,299.1L977.9,299.1L977.9,299.1z"/>
	<path class="st0" d="M1115.9,178.4h117.1v27h-77.5v22.5h74.9V255h-74.9v22.8h77.5v27h-117.1V178.4L1115.9,178.4z"/>
	<path class="st0" d="M812.3,184.7L812.3,184.7c-4.2-4.2-10.1-6.3-17.8-6.3h-86.9c-7.8,0-13.7,2.1-17.8,6.3s-6.2,10-6.2,17.5v102.6
		h40v-93.1c0-0.8,0.2-1.5,0.6-1.9c0.4-0.4,1-0.6,1.8-0.6h50.4c0.8,0,1.5,0.2,1.9,0.6s0.7,1,0.7,1.9v25.3h-46.4v27.1h46.4v40.7h39.7
		V202.2C818.6,194.7,816.5,188.9,812.3,184.7L812.3,184.7z"/>
</g>
</svg>
