<?xml version="1.0" encoding="utf-8"?>
<!-- Generator: Adobe Illustrator 22.1.0, SVG Export Plug-In . SVG Version: 6.00 Build 0)  -->
<svg version="1.1" id="Layer_1" xmlns="http://www.w3.org/2000/svg" xmlns:xlink="http://www.w3.org/1999/xlink" x="0px" y="0px"
	 viewBox="0 0 50 50" style="enable-background:new 0 0 50 50;" xml:space="preserve">
<style type="text/css">
	.st0{fill:#FFFFFF;}
</style>
<title>Icons/Social/Instagram - BLK</title>
<desc>Created with Sketch.</desc>
<g id="Icons_x2F_Social_x2F_Instagram---BLK">
	<path id="Mask" class="st0" d="M25,4.3c5.7,0,6.3,0,8.5,0.1c2.2,0.1,3.7,0.4,5,1C39.9,6,41,6.6,42.2,7.8s1.8,2.4,2.4,3.7
		c0.5,1.3,0.9,2.8,1,5c0.1,2.2,0.1,2.9,0.1,8.5s0,6.3-0.1,8.5c-0.1,2.2-0.4,3.7-1,5c-0.5,1.4-1.2,2.5-2.4,3.7s-2.4,1.8-3.7,2.4
		c-1.3,0.5-2.8,0.9-5,1c-2.2,0.1-2.9,0.1-8.5,0.1s-6.3,0-8.5-0.1c-2.2-0.1-3.7-0.4-5-1C10.1,44,9,43.4,7.8,42.2S6,39.8,5.4,38.5
		s-0.9-2.8-1-5c-0.1-2.2-0.1-2.8-0.1-8.5s0-6.3,0.1-8.5c0.1-2.2,0.4-3.7,1-5C6,10.1,6.6,9,7.8,7.8s2.4-1.8,3.7-2.4s2.8-0.9,5-1
		C18.7,4.3,19.3,4.3,25,4.3z M25,8c-5.5,0-6.2,0-8.4,0.1c-2,0.1-3,0.4-3.8,0.8c-1,0.3-1.6,0.8-2.4,1.5c-0.7,0.8-1.2,1.4-1.5,2.4
		c-0.3,0.7-0.7,1.7-0.8,3.8C8,18.8,8,19.5,8,25s0,6.2,0.1,8.4c0.1,2,0.4,3,0.8,3.8c0.3,1,0.8,1.6,1.5,2.4c0.8,0.7,1.4,1.2,2.4,1.5
		c0.7,0.3,1.7,0.7,3.8,0.8C18.8,42,19.5,42,25,42s6.2,0,8.4-0.1c2-0.1,3-0.4,3.8-0.8c1-0.3,1.6-0.8,2.4-1.5c0.7-0.8,1.2-1.4,1.5-2.4
		c0.3-0.7,0.7-1.7,0.8-3.8C42,31.2,42,30.5,42,25s0-6.2-0.1-8.4c-0.1-2-0.4-3-0.8-3.8c-0.3-1-0.8-1.6-1.5-2.4
		c-0.8-0.7-1.4-1.2-2.4-1.5c-0.7-0.3-1.7-0.7-3.8-0.8C31.2,8,30.5,8,25,8z M25,14.3c5.9,0,10.7,4.8,10.7,10.7S30.9,35.7,25,35.7
		S14.3,30.9,14.3,25S19.1,14.3,25,14.3z M25,31.8c3.8,0,6.8-3,6.8-6.8s-3-6.8-6.8-6.8s-6.8,3-6.8,6.8S21.2,31.8,25,31.8z M36,16.5
		c-1.4,0-2.5-1.1-2.5-2.5s1.1-2.5,2.5-2.5c1.4,0,2.5,1.1,2.5,2.5S37.4,16.5,36,16.5z"/>
</g>
</svg>
