<?xml version="1.0" encoding="utf-8"?>
<!-- Generator: Adobe Illustrator 22.1.0, SVG Export Plug-In . SVG Version: 6.00 Build 0)  -->
<svg version="1.1" id="Layer_1" xmlns="http://www.w3.org/2000/svg" xmlns:xlink="http://www.w3.org/1999/xlink" x="0px" y="0px"
	 viewBox="0 0 50 50" style="enable-background:new 0 0 50 50;" xml:space="preserve">
<style type="text/css">
	.st0{fill:#FFFFFF;}
</style>
<title>Icons/Social/youtube - BLK</title>
<desc>Created with Sketch.</desc>
<g id="Icons_x2F_Social_x2F_youtube---BLK">
	<path id="Mask" class="st0" d="M49.1,13.5c-0.6-2.2-2.3-3.8-4.4-4.3C40.7,8.1,25,8.1,25,8.1S9.3,8.1,5.4,9.2
		C3.2,9.7,1.5,11.5,1,13.5c-1,3.9-1,12-1,12s0,8,1,12c0.6,2.2,2.3,3.8,4.4,4.3C9.3,42.9,25,42.9,25,42.9s15.7,0,19.6-1.1
		c2.2-0.5,3.9-2.3,4.4-4.3c1-3.9,1-12,1-12S50.1,17.4,49.1,13.5z M19.9,32.9V18.1L33,25.5L19.9,32.9z"/>
</g>
</svg>
